<svg width="224" height="78" viewBox="0 0 224 78" fill="none" xmlns="http://www.w3.org/2000/svg">
<path d="M19.2722 49.9661V53.4982H11.921V77.548H7.39099V53.4982H0V49.9661H19.2722Z" fill="white"/>
<path d="M21.2067 66.515C21.2067 64.319 21.6571 62.3744 22.5578 60.6812C23.485 58.9879 24.7301 57.6782 26.293 56.7522C27.8825 55.7997 29.6309 55.3235 31.5382 55.3235C33.2601 55.3235 34.7569 55.6674 36.0285 56.3553C37.3265 57.0168 38.3597 57.8502 39.1279 58.8556V55.6806H43.6976V77.5478H39.1279V74.2935C38.3597 75.3254 37.3133 76.1852 35.9887 76.8731C34.6642 77.561 33.1542 77.9049 31.4588 77.9049C29.5779 77.9049 27.856 77.4287 26.293 76.4763C24.7301 75.4973 23.485 74.148 22.5578 72.4283C21.6571 70.6821 21.2067 68.711 21.2067 66.515ZM39.1279 66.5943C39.1279 65.0862 38.81 63.7766 38.1742 62.6654C37.5649 61.5542 36.757 60.7075 35.7503 60.1254C34.7437 59.5434 33.6575 59.2524 32.4919 59.2524C31.3263 59.2524 30.2402 59.5434 29.2335 60.1254C28.2269 60.681 27.4056 61.5145 26.7698 62.6257C26.1605 63.7104 25.8559 65.0068 25.8559 66.5149C25.8559 68.023 26.1605 69.3459 26.7698 70.4835C27.4056 71.6212 28.2269 72.4943 29.2335 73.1028C30.2667 73.6849 31.3528 73.9759 32.4919 73.9759C33.6575 73.9759 34.7437 73.6849 35.7503 73.1028C36.757 72.5208 37.5649 71.6741 38.1742 70.5629C38.81 69.4253 39.1279 68.1024 39.1279 66.5943Z" fill="white"/>
<path d="M59.8577 55.3236C61.5266 55.3236 63.0101 55.6807 64.3082 56.3951C65.6327 57.1095 66.6659 58.1678 67.4076 59.57C68.1759 60.9722 68.56 62.6656 68.56 64.6499V77.5479H64.0698V65.3245C64.0698 63.3667 63.5797 61.8718 62.5995 60.84C61.6194 59.7817 60.2816 59.2525 58.5861 59.2525C56.8907 59.2525 55.5397 59.7817 54.533 60.84C53.5528 61.8718 53.0628 63.3667 53.0628 65.3245V77.5479H48.5328V48.1801H53.0628V58.2207C53.831 57.2946 54.7979 56.5803 55.9635 56.0776C57.1556 55.5749 58.4537 55.3236 59.8577 55.3236Z" fill="white"/>
<path d="M117.49 65.9991C117.49 66.7663 117.437 67.4807 117.331 68.1421H100.562C100.695 69.9677 101.344 71.4229 102.509 72.5077C103.675 73.5659 105.119 74.0951 106.84 74.0951C109.278 74.0951 111 73.0765 112.006 71.0392H116.894C116.232 73.05 115.026 74.7036 113.278 76C111.556 77.27 109.41 77.9049 106.84 77.9049C104.748 77.9049 102.867 77.442 101.198 76.5159C99.5554 75.5635 98.2574 74.2406 97.3037 72.5473C96.3765 70.8276 95.9129 68.8433 95.9129 66.5944C95.9129 64.3455 96.3633 62.3744 97.264 60.6812C98.1911 58.9614 99.4759 57.6385 101.118 56.7125C102.787 55.7865 104.695 55.3235 106.84 55.3235C108.907 55.3235 110.748 55.7733 112.364 56.6728C113.98 57.5724 115.238 58.8291 116.139 60.443C117.039 62.0569 117.49 63.9089 117.49 65.9991H117.49ZM112.761 64.8879C112.735 63.1152 112.139 61.713 110.973 60.6812C109.834 59.6493 108.39 59.1334 106.642 59.1334C105.052 59.1334 103.688 59.6493 102.549 60.6812C101.436 61.713 100.787 63.1152 100.602 64.8879H112.761Z" fill="white"/>
<path d="M137.624 61.2765V65.0864H121.292V61.2765H137.624Z" fill="white"/>
<path d="M147.466 74.0953H156.804V77.548H142.936V49.9661H147.466V74.0953Z" fill="white"/>
<path d="M176.103 71.9124H164.54L162.553 77.5479H157.824L167.719 49.9263H172.964L182.858 77.5479H178.09L176.103 71.9124ZM174.871 68.3804L170.341 55.403L165.772 68.3804H174.871Z" fill="white"/>
<path d="M202.277 49.9661V53.4982H190.554V61.8719H199.694V65.3643H190.554V77.548H186.024V49.9661H202.277Z" fill="white"/>
<path d="M214.463 77.8256C212.609 77.8256 210.94 77.5081 209.456 76.8731C207.973 76.2117 206.807 75.2856 205.96 74.095C205.112 72.9045 204.688 71.5155 204.688 69.928H209.536C209.642 71.1715 210.106 72.1901 210.927 72.9839C211.774 73.7776 212.953 74.1744 214.463 74.1744C216.026 74.1744 217.245 73.7908 218.119 73.0235C218.993 72.2298 219.43 71.2112 219.43 69.9677C219.43 69.0417 219.152 68.2876 218.596 67.7056C218.066 67.1235 217.39 66.6737 216.569 66.3562C215.775 66.0388 214.662 65.6948 213.231 65.3244C211.43 64.8482 209.96 64.3719 208.821 63.8957C207.708 63.393 206.754 62.6257 205.96 61.5939C205.165 60.562 204.768 59.1862 204.768 57.4665C204.768 55.8791 205.165 54.49 205.96 53.2994C206.754 52.1089 207.867 51.1961 209.297 50.5611C210.728 49.9261 212.384 49.6086 214.265 49.6086C216.94 49.6086 219.126 50.2833 220.821 51.6326C222.543 52.9555 223.497 54.7811 223.682 57.1094H218.675C218.596 56.0246 218.119 55.125 217.245 54.4107C216.397 53.6699 215.245 53.2994 213.788 53.2994C212.463 53.2994 211.39 53.6434 210.569 54.3313C209.774 54.9927 209.377 55.9849 209.377 57.3078C209.377 58.1544 209.629 58.8555 210.132 59.4111C210.662 59.9403 211.324 60.3636 212.119 60.6811C212.913 60.9986 214 61.3425 215.377 61.7129C217.205 62.2156 218.689 62.7184 219.828 63.2211C220.993 63.7237 221.973 64.5042 222.768 65.5625C223.589 66.5944 224 67.9834 224 69.7296C224 71.1318 223.616 72.4547 222.848 73.6982C222.106 74.9417 221.006 75.9471 219.549 76.7144C218.119 77.4552 216.424 77.8256 214.463 77.8256Z" fill="white"/>
<path d="M81.6552 26.382V66.529H83.9522V26.382H81.6552Z" fill="white"/>
<path d="M79.358 28.6764L82.8035 18.3529L86.249 28.6764H79.358Z" fill="white"/>
<path d="M82.8036 66.5293L73.6155 42.441L82.8036 66.5293Z" fill="white"/>
<path d="M74.6879 42.0331L72.5435 42.8486L81.7315 66.9368L83.876 66.1213L74.6879 42.0331Z" fill="white"/>
<path d="M71.2134 45.81L70.7534 34.9377L77.653 43.3599L71.2134 45.81Z" fill="white"/>
<path d="M82.8035 66.5293L91.9916 42.441L82.8035 66.5293Z" fill="white"/>
<path d="M90.9194 42.0331L81.7313 66.1213L83.8758 66.9368L93.0639 42.8486L90.9194 42.0331Z" fill="white"/>
<path d="M87.954 43.3599L94.8536 34.9377L94.3936 45.81L87.954 43.3599Z" fill="white"/>
<path d="M82.8035 77.9999C89.1466 77.9999 94.2887 72.8643 94.2887 66.5293C94.2887 60.1943 89.1466 55.0587 82.8035 55.0587C76.4605 55.0587 71.3184 60.1943 71.3184 66.5293C71.3184 72.8643 76.4605 77.9999 82.8035 77.9999Z" fill="white"/>
<path d="M82.8034 18.3529C87.8779 18.3529 91.9915 14.2445 91.9915 9.17647C91.9915 4.10845 87.8779 0 82.8034 0C77.729 0 73.6154 4.10845 73.6154 9.17647C73.6154 14.2445 77.729 18.3529 82.8034 18.3529Z" fill="white"/>
<path d="M66.7243 35.5589C71.7988 35.5589 75.9124 31.4504 75.9124 26.3824C75.9124 21.3144 71.7988 17.2059 66.7243 17.2059C61.6499 17.2059 57.5363 21.3144 57.5363 26.3824C57.5363 31.4504 61.6499 35.5589 66.7243 35.5589Z" fill="white"/>
<path d="M98.8827 35.5589C103.957 35.5589 108.071 31.4504 108.071 26.3824C108.071 21.3144 103.957 17.2059 98.8827 17.2059C93.8082 17.2059 89.6946 21.3144 89.6946 26.3824C89.6946 31.4504 93.8082 35.5589 98.8827 35.5589Z" fill="white"/>
</svg>
