<svg width="120" height="120" viewBox="0 0 120 120" fill="none" xmlns="http://www.w3.org/2000/svg">
<path d="M58.9315 42.6021V97.2535H62.0679V42.6021H58.9315Z" fill="#222831"/>
<path d="M55.7941 45.7256L60.4985 31.6724L65.203 45.7256H55.7941Z" fill="#222831"/>
<path d="M60.5013 97.2545L47.9561 64.4636Z" fill="#222831"/>
<path d="M49.4203 63.9084L46.4892 65.0186L59.0344 97.8095L61.9655 96.6993L49.4203 63.9084Z" fill="#222831"/>
<path d="M44.6754 69.0497L44.0473 54.2495L53.4678 65.7145L44.6754 69.0497Z" fill="#222831"/>
<path d="M60.5003 97.2545L73.0455 64.4636Z" fill="#222831"/>
<path d="M71.5785 63.9084L59.0333 96.6993L61.9644 97.8095L74.5096 65.0186L71.5785 63.9084Z" fill="#222831"/>
<path d="M67.532 65.7145L76.9526 54.2495L76.3245 69.0497L67.532 65.7145Z" fill="#222831"/>
<path d="M60.5003 112.869C69.161 112.869 76.1818 105.878 76.1818 97.2544C76.1818 88.6306 69.161 81.6396 60.5003 81.6396C51.8396 81.6396 44.8188 88.6306 44.8188 97.2544C44.8188 105.878 51.8396 112.869 60.5003 112.869Z" fill="#F05454"/>
<path d="M60.4986 31.6728C67.4271 31.6728 73.0438 26.08 73.0438 19.181C73.0438 12.282 67.4271 6.68921 60.4986 6.68921C53.5701 6.68921 47.9534 12.282 47.9534 19.181C47.9534 26.08 53.5701 31.6728 60.4986 31.6728Z" fill="#222831"/>
<path d="M38.5452 55.0949C45.4738 55.0949 51.0904 49.5021 51.0904 42.6031C51.0904 35.7041 45.4738 30.1113 38.5452 30.1113C31.6167 30.1113 26 35.7041 26 42.6031C26 49.5021 31.6167 55.0949 38.5452 55.0949Z" fill="#222831"/>
<path d="M82.4548 55.0949C89.3833 55.0949 95 49.5021 95 42.6031C95 35.7041 89.3833 30.1113 82.4548 30.1113C75.5262 30.1113 69.9095 35.7041 69.9095 42.6031C69.9095 49.5021 75.5262 55.0949 82.4548 55.0949Z" fill="#222831"/>
<style xmlns="http://www.w3.org/2000/svg">
    @media (prefers-color-scheme: dark) {
        path {
            fill: #fff !important;
        }
    }
</style>
</svg>
