<?xml version="1.0" encoding="UTF-8" standalone="no"?>
<!-- Created with Inkscape (http://www.inkscape.org/) -->

<svg
   width="79.005539mm"
   height="27.545694mm"
   viewBox="0 0 79.005539 27.545694"
   version="1.1"
   id="svg18956"
   inkscape:version="1.1 (c68e22c387, 2021-05-23)"
   sodipodi:docname="horizontal-color.svg"
   inkscape:export-filename="C:\Users\Anxhelo\Documents\GitHub\new-website-prototype\brand-assets\PNG\horizontal\horizontal-color.png"
   inkscape:export-xdpi="192"
   inkscape:export-ydpi="192"
   xmlns:inkscape="http://www.inkscape.org/namespaces/inkscape"
   xmlns:sodipodi="http://sodipodi.sourceforge.net/DTD/sodipodi-0.dtd"
   xmlns="http://www.w3.org/2000/svg"
   xmlns:svg="http://www.w3.org/2000/svg">
  <sodipodi:namedview
     id="namedview18958"
     pagecolor="#ffffff"
     bordercolor="#666666"
     borderopacity="1.0"
     inkscape:pageshadow="2"
     inkscape:pageopacity="0.0"
     inkscape:pagecheckerboard="0"
     inkscape:document-units="mm"
     showgrid="false"
     inkscape:zoom="0.96253026"
     inkscape:cx="71.686058"
     inkscape:cy="-13.506069"
     inkscape:window-width="1920"
     inkscape:window-height="1027"
     inkscape:window-x="-8"
     inkscape:window-y="-8"
     inkscape:window-maximized="1"
     inkscape:current-layer="layer1" />
  <defs
     id="defs18953">
    <marker
       id="arrowhead-1-6"
       viewBox="0 -5 10 10"
       refX="2"
       refY="0"
       markerUnits="userSpaceOnUse"
       markerWidth="10"
       markerHeight="10"
       orient="auto">
      <path
         d="M 0,-3 9,0 0,3 Z"
         id="path8-7-7" />
    </marker>
    <marker
       id="marker18933"
       viewBox="0 -5 10 10"
       refX="2"
       refY="0"
       markerUnits="userSpaceOnUse"
       markerWidth="10"
       markerHeight="10"
       orient="auto">
      <path
         d="M 0,-3 9,0 0,3 Z"
         id="path18931" />
    </marker>
    <marker
       id="marker18937"
       viewBox="0 -5 10 10"
       refX="2"
       refY="0"
       markerUnits="userSpaceOnUse"
       markerWidth="10"
       markerHeight="10"
       orient="auto">
      <path
         d="M 0,-3 9,0 0,3 Z"
         id="path18935" />
    </marker>
    <marker
       id="arrowhead-1-6-0"
       viewBox="0 -5 10 10"
       refX="2"
       refY="0"
       markerUnits="userSpaceOnUse"
       markerWidth="10"
       markerHeight="10"
       orient="auto">
      <path
         d="M 0,-3 9,0 0,3 Z"
         id="path8-7-7-8" />
    </marker>
    <marker
       id="marker20003"
       viewBox="0 -5 10 10"
       refX="2"
       refY="0"
       markerUnits="userSpaceOnUse"
       markerWidth="10"
       markerHeight="10"
       orient="auto">
      <path
         d="M 0,-3 9,0 0,3 Z"
         id="path20001" />
    </marker>
    <marker
       id="marker20007"
       viewBox="0 -5 10 10"
       refX="2"
       refY="0"
       markerUnits="userSpaceOnUse"
       markerWidth="10"
       markerHeight="10"
       orient="auto">
      <path
         d="M 0,-3 9,0 0,3 Z"
         id="path20005" />
    </marker>
  </defs>
  <g
     inkscape:label="Layer 1"
     inkscape:groupmode="layer"
     id="layer1"
     transform="translate(-73.621574,-138.61459)">
    <g
       aria-label="Tahoe-LAFS"
       id="text3011"
       style="font-weight:900;font-size:14.0152px;line-height:1.25;font-family:Inter;-inkscape-font-specification:'Inter Heavy';letter-spacing:-0.396875px;fill:#040404;stroke:#ffffff;stroke-width:0;stroke-linecap:square;stroke-linejoin:round">
      <path
         d="m 80.418946,156.26009 v 1.24736 h -2.592812 v 8.49321 h -1.597732 v -8.49321 h -2.606828 v -1.24736 z"
         style="font-weight:500;font-family:Poppins;-inkscape-font-specification:'Poppins Medium';stroke:none"
         id="path20912" />
      <path
         d="m 81.10123,162.10443 q 0,-1.16326 0.476517,-2.06023 0.490532,-0.89698 1.317429,-1.38751 0.840912,-0.50455 1.850006,-0.50455 0.910988,0 1.583718,0.3644 0.686744,0.35038 1.093185,0.88296 v -1.12122 h 1.611748 v 7.72238 h -1.611748 v -1.14925 q -0.406441,0.54659 -1.107201,0.91099 -0.700759,0.36439 -1.597732,0.36439 -0.995079,0 -1.821976,-0.50454 -0.826897,-0.51857 -1.317429,-1.42955 -0.476517,-0.92501 -0.476517,-2.08827 z m 6.320855,0.028 q 0,-0.79887 -0.336365,-1.3875 -0.322349,-0.58864 -0.854927,-0.89698 -0.532577,-0.30833 -1.149246,-0.30833 -0.616669,0 -1.149246,0.30833 -0.532578,0.29432 -0.868943,0.88296 -0.322349,0.57462 -0.322349,1.37349 0,0.79887 0.322349,1.40152 0.336365,0.60265 0.868943,0.925 0.546592,0.30834 1.149246,0.30834 0.616669,0 1.149246,-0.30834 0.532578,-0.30833 0.854927,-0.89697 0.336365,-0.60265 0.336365,-1.40152 z"
         style="font-weight:500;font-family:Poppins;-inkscape-font-specification:'Poppins Medium';stroke:none"
         id="path20914" />
      <path
         d="m 94.733563,158.15214 q 0.882958,0 1.569703,0.37841 0.70076,0.37842 1.093185,1.12122 0.406441,0.74281 0.406441,1.79395 v 4.55494 h -1.583718 v -4.31669 q 0,-1.03712 -0.518562,-1.58371 -0.518562,-0.56061 -1.415535,-0.56061 -0.896973,0 -1.429551,0.56061 -0.518562,0.54659 -0.518562,1.58371 v 4.31669 h -1.597733 v -10.37125 h 1.597733 v 3.54584 q 0.406441,-0.49053 1.02311,-0.75682 0.630684,-0.26629 1.373489,-0.26629 z"
         style="font-weight:500;font-family:Poppins;-inkscape-font-specification:'Poppins Medium';stroke:none"
         id="path20916" />
      <path
         d="m 115.06067,161.92223 q 0,0.40644 -0.0561,0.75682 h -5.91441 q 0.0701,0.96705 0.68674,1.54168 0.61667,0.5606 1.52766,0.5606 1.2894,0 1.82198,-1.07917 h 1.72387 q -0.35038,1.06516 -1.27539,1.7519 -0.91099,0.67273 -2.27046,0.67273 -1.1072,0 -1.99016,-0.49053 -0.86894,-0.50455 -1.37349,-1.40152 -0.49053,-0.91099 -0.49053,-2.10228 0,-1.19129 0.47652,-2.08826 0.49053,-0.91099 1.35947,-1.40152 0.88296,-0.49054 2.01819,-0.49054 1.09319,0 1.94811,0.47652 0.85493,0.47652 1.33145,1.33145 0.47651,0.85492 0.47651,1.96212 z m -1.6678,-0.39242 q -0.014,-0.93902 -0.63069,-1.48561 -0.60265,-0.5466 -1.52766,-0.5466 -0.84091,0 -1.44356,0.5466 -0.58864,0.54659 -0.68675,1.48561 z"
         style="font-weight:500;font-family:Poppins;-inkscape-font-specification:'Poppins Medium';stroke:none"
         id="path20920" />
      <path
         d="m 122.16191,160.25442 v 1.34546 h -5.76025 v -1.34546 z"
         style="font-weight:500;font-family:Poppins;-inkscape-font-specification:'Poppins Medium';stroke:none"
         id="path20922" />
      <path
         d="m 125.63322,164.78133 h 3.29357 v 1.21933 h -4.8913 v -9.74057 h 1.59773 z"
         style="font-weight:500;font-family:Poppins;-inkscape-font-specification:'Poppins Medium';stroke:none"
         id="path20924" />
      <path
         d="m 135.73371,164.0105 h -4.07842 l -0.70076,1.99016 h -1.66781 l 3.48978,-9.75458 h 1.85001 l 3.48978,9.75458 h -1.68182 z m -0.43447,-1.24735 -1.59774,-4.58298 -1.61174,4.58298 z"
         style="font-weight:500;font-family:Poppins;-inkscape-font-specification:'Poppins Medium';stroke:none"
         id="path20926" />
      <path
         d="m 144.96526,156.26009 v 1.24736 h -4.13449 v 2.9572 h 3.2235 v 1.23334 h -3.2235 v 4.30267 h -1.59773 v -9.74057 z"
         style="font-weight:500;font-family:Poppins;-inkscape-font-specification:'Poppins Medium';stroke:none"
         id="path20928" />
      <path
         d="m 149.26347,166.09876 q -0.98107,0 -1.76592,-0.33636 -0.78485,-0.35038 -1.23334,-0.98107 -0.44848,-0.63068 -0.44848,-1.47159 h 1.70985 q 0.0561,0.65871 0.49053,1.07917 0.44849,0.42045 1.24736,0.42045 0.82689,0 1.28939,-0.40644 0.46251,-0.42045 0.46251,-1.07917 0,-0.49053 -0.29432,-0.79886 -0.28031,-0.30834 -0.71478,-0.47652 -0.42045,-0.16818 -1.17727,-0.3644 -0.95304,-0.25227 -1.55569,-0.50454 -0.58864,-0.26629 -1.0091,-0.81288 -0.42045,-0.5466 -0.42045,-1.45758 0,-0.84092 0.42045,-1.4716 0.42046,-0.63068 1.17728,-0.96705 0.75682,-0.33636 1.7519,-0.33636 1.41554,0 2.31251,0.71477 0.91099,0.70076 1.00909,1.9341 h -1.76591 q -0.042,-0.57462 -0.50455,-0.95304 -0.44849,-0.39242 -1.21932,-0.39242 -0.70076,0 -1.13523,0.36439 -0.42046,0.35038 -0.42046,1.05114 0,0.44849 0.26629,0.74281 0.2803,0.2803 0.70076,0.44849 0.42046,0.16818 1.14925,0.36439 0.96704,0.26629 1.5697,0.53258 0.61667,0.26629 1.03712,0.8269 0.43447,0.54659 0.43447,1.47159 0,0.74281 -0.40644,1.40152 -0.39242,0.65872 -1.16326,1.06516 -0.75682,0.39242 -1.79394,0.39242 z"
         style="font-weight:500;font-family:Poppins;-inkscape-font-specification:'Poppins Medium';stroke:none"
         id="path20930" />
    </g>
    <g
       id="g17777"
       transform="matrix(0.40508375,0,0,0.40508375,253.10961,119.00903)">
      <line
         class="arrow"
         x1="-370.99231"
         y1="106.39877"
         x2="-370.99231"
         y2="71.398773"
         id="line13-3-7"
         style="stroke:#000000;stroke-width:2;marker-end:url(#arrowhead-1-6)" />
      <line
         class="arrow"
         x1="-370.99231"
         y1="106.39877"
         x2="-378.99231"
         y2="85.398773"
         id="line15-4-0"
         style="stroke:#000000;stroke-width:2;marker-end:url(#arrowhead-1-6)" />
      <line
         class="arrow"
         x1="-370.99231"
         y1="106.39877"
         x2="-362.99231"
         y2="85.398773"
         id="line17-7-5"
         style="stroke:#000000;stroke-width:2;marker-end:url(#arrowhead-1-6)" />
      <circle
         fill="#ff0000"
         r="10"
         id="circle19-7-7"
         cx="-370.99231"
         cy="106.39877" />
      <circle
         class="storage"
         r="8"
         cy="56.398773"
         id="circle21-2-4"
         cx="-370.99231"
         style="fill:#000000" />
      <circle
         class="storage"
         cy="71.398773"
         cx="-384.99231"
         id="circle23-4-8"
         r="8"
         style="fill:#000000" />
      <circle
         class="storage"
         r="8"
         cy="71.398773"
         cx="-356.99231"
         id="circle25-6-0"
         style="fill:#000000" />
    </g>
  </g>
</svg>
